<svg width="603" height="645" viewBox="0 0 603 645" fill="none" xmlns="http://www.w3.org/2000/svg">
<path d="M222.783 363.839C248.835 357.658 273.999 351.639 299.087 345.312C313.96 341.561 328.812 337.684 343.659 333.808C353.918 331.13 364.174 328.452 374.434 325.817C388.425 322.224 402.424 318.681 416.473 315.363C430.005 312.167 440.384 304.783 449.233 294.183C466.003 274.096 470.349 249.71 474.639 225.63L474.683 225.387C475.773 219.27 479.335 212.561 484.114 207.872C488.905 203.172 494.682 200.707 500.282 202.462C502.727 203.228 505.079 204.81 507.351 206.803C509.621 208.793 511.74 211.128 513.749 213.346L516.163 216.01C537.974 240.079 559.779 264.141 580.963 288.733C592.21 301.79 588.743 316.713 585.158 332.142C584.941 333.076 584.723 334.013 584.508 334.951C581.041 350.094 577.677 365.231 574.313 380.364C570.438 397.802 566.563 415.234 562.534 432.663C561.237 438.276 560.094 443.961 558.969 449.641C558.853 450.223 558.738 450.806 558.623 451.388C557.613 456.489 556.606 461.579 555.497 466.625C553.026 477.869 550.062 488.834 545.496 499.04C532.859 527.292 511.196 547.103 477.914 551.384C469.25 552.498 460.732 554.58 452.288 556.885C449.528 557.639 446.78 558.415 444.038 559.189C438.367 560.791 432.718 562.387 427.022 563.765C415.08 566.655 403.116 569.488 391.149 572.322C372.446 576.75 353.736 581.18 335.093 585.833C325.601 588.202 316.186 590.865 306.791 593.522L306.651 593.562C297.204 596.234 287.777 598.899 278.278 601.264C248.431 608.694 218.469 615.675 188.489 622.598C187.926 622.728 187.362 622.858 186.799 622.989C178.646 624.879 170.492 626.769 162.361 627.046C152.538 627.38 146.604 626.264 142.729 622.97C138.847 619.671 136.754 613.954 135.312 604.254C134.546 599.107 134.465 593.564 135.604 588.626C142.115 560.406 148.848 532.239 155.581 504.067C157.989 493.994 160.396 483.92 162.794 473.843C164.326 467.408 165.714 460.952 167.099 454.511C170.161 440.269 173.208 426.099 177.752 412.382C185.061 390.321 200.769 374.326 222.783 363.839ZM252.863 446.865C251.314 452.811 249.734 458.757 248.154 464.705C244.321 479.132 240.484 493.577 237.05 508.109C234.424 519.221 243.995 528.232 255.016 525.468C270.148 521.675 285.253 517.693 300.351 513.713C311.743 510.71 323.131 507.708 334.522 504.789C345.246 502.041 356.003 499.371 366.765 496.699C383.638 492.51 400.523 488.318 417.309 483.821C429.393 480.583 441.245 476.617 449.279 464.247C457.572 451.478 460.656 437.388 463.702 423.472C464.259 420.924 464.816 418.382 465.403 415.854C466.159 412.598 466.479 409.155 466.789 405.824C466.878 404.861 466.967 403.907 467.065 402.97C467.51 398.726 468.148 394.766 469.828 391.345C470.365 390.253 471.025 389.195 471.704 388.107C471.778 387.988 471.852 387.869 471.926 387.75C472.663 386.566 473.417 385.326 473.916 384.082C474.42 382.826 474.707 381.467 474.41 380.056C474.111 378.632 473.253 377.321 471.787 376.098C466.929 372.049 459.952 369.899 453.763 368.855C451.202 368.423 448.54 368.677 445.954 369.165C444.151 369.505 442.316 369.974 440.555 370.424C439.809 370.614 439.076 370.802 438.365 370.974C415.357 376.557 392.358 382.201 369.423 388.103C357.52 391.167 345.62 394.369 333.727 397.569C323.827 400.234 313.931 402.897 304.042 405.477C292.924 408.378 281.946 411.687 272.851 417.787C263.704 423.92 256.502 432.845 252.863 446.865Z" stroke="#F0F2F5" stroke-width="2.31035"/>
<path d="M221.664 140.761L221.651 140.765C219.299 141.394 216.955 142.032 214.613 142.67C209.477 144.069 204.356 145.463 199.198 146.747C180.79 151.328 167.051 161.959 160.872 180.156C156.921 191.792 154.127 203.841 151.354 215.794C150.865 217.903 150.376 220.009 149.883 222.109C149.787 222.516 149.691 222.924 149.594 223.332C147.474 232.331 145.304 241.546 144.661 250.827C144.007 260.288 152.101 266.34 160.594 264.304C180.044 259.64 199.503 254.964 218.891 250.009C227.982 247.685 237.087 245.395 246.194 243.103C275.133 235.823 304.1 228.535 332.739 220.155C347.658 215.79 359.078 204.441 363.733 188.72C364.673 185.546 365.63 182.368 366.589 179.186C371.394 163.233 376.236 147.157 379.146 130.771C380.056 125.644 380.577 121.269 380.539 117.657C380.501 114.06 379.91 111.085 378.47 108.865C376.995 106.588 374.726 105.253 371.685 104.764C368.692 104.283 364.915 104.612 360.276 105.637C336.829 110.821 313.617 117.178 290.436 123.527C278.608 126.766 266.788 130.003 254.949 133.081C249.815 134.416 244.623 135.543 239.174 136.726L239.053 136.753C233.566 137.944 227.824 139.193 221.664 140.761ZM461.982 21.9463C472.381 21.9758 480.207 26.1976 484.808 33.058C489.439 39.9637 490.913 49.7098 488.209 60.9239C486.279 68.925 484.32 76.9236 482.36 84.9245C477.44 105.014 472.517 125.118 468.043 145.315C465.698 155.906 463.709 166.591 461.725 177.25C461.189 180.133 460.653 183.013 460.11 185.89C457.558 199.416 454.857 212.865 451.274 226.069C444.38 251.478 428.501 272.383 405.104 284.294C397.996 287.913 390.101 290.067 381.904 291.815C378.742 292.49 375.512 293.108 372.269 293.728C367.177 294.703 362.051 295.683 357.101 296.9C347.564 299.243 338.009 301.563 328.452 303.884C317.457 306.554 306.461 309.224 295.487 311.931C281.263 315.439 267.062 318.97 252.862 322.502C237.587 326.301 222.313 330.099 207.014 333.868C182.588 339.884 169.379 357.975 161.051 379.118C156.285 391.218 153.599 404.195 150.951 416.986C150.36 419.845 149.77 422.694 149.159 425.522C147.826 431.697 144.628 437.381 140.457 441.33C136.285 445.28 131.229 447.421 126.131 446.756C121.988 446.216 117.306 443.275 114.163 440.006C101.255 426.581 88.7346 412.762 76.4219 398.767C73.2381 395.149 69.919 391.598 66.6039 388.06L66.1809 387.608C63.0035 384.217 59.8351 380.836 56.7768 377.395C50.3877 370.208 44.5211 362.807 40.1505 354.656C37.5801 349.862 36.7355 343.672 36.8534 337.038C36.971 330.422 38.0422 323.489 39.1979 317.283C45.5037 283.421 53.2921 249.804 61.3771 216.28C66.6527 194.405 72.2608 172.519 79.842 151.439C90.273 122.435 111.693 104.851 142.037 98.1575C160.165 94.1585 178.255 89.9779 196.31 85.6696C199.181 84.9844 202.053 84.2996 204.924 83.6148C232.693 76.9924 260.472 70.3677 288.163 63.395C298.044 60.907 307.858 58.1668 317.655 55.4258L318.295 55.2467C327.883 52.5641 337.456 49.8859 347.085 47.4388C375.459 40.2277 403.909 33.3003 432.419 26.643C439.371 25.0195 446.462 24.0644 454.037 23.0439C456.624 22.6954 459.268 22.3393 461.982 21.9463Z" stroke="#F0F2F5" stroke-width="2.31035"/>
</svg>
