<svg width="120" height="120" viewBox="0 0 120 120" fill="none" xmlns="http://www.w3.org/2000/svg">
<g filter="url(#filter0_ddddii_168_9829)">
<g clip-path="url(#clip0_168_9829)">
<path d="M10 42C10 24.3269 24.3269 10 42 10H78C95.6731 10 110 24.3269 110 42V78C110 95.6731 95.6731 110 78 110H42C24.3269 110 10 95.6731 10 78V42Z" fill="#02C76A"/>
<g filter="url(#filter1_f_168_9829)">
<path d="M2 100.77L54.0914 54.3619L61.4267 60.2215L27.6737 121.278L2 100.77Z" fill="url(#paint0_linear_168_9829)" fill-opacity="0.3"/>
</g>
<g filter="url(#filter2_f_168_9829)">
<path d="M114.77 102.27L67.0859 55.3444L60.4722 60.257L91.6218 119.463L114.77 102.27Z" fill="url(#paint1_linear_168_9829)" fill-opacity="0.3"/>
</g>
<g filter="url(#filter3_ddi_168_9829)">
<path fill-rule="evenodd" clip-rule="evenodd" d="M59.8009 62.0641C57.4628 62.6537 55.1175 63.2147 52.6887 63.7909C50.6124 64.7773 49.1231 66.2883 48.4309 68.3776C48.0061 69.6601 47.7204 70.9886 47.4347 72.3171C47.306 72.9153 47.1774 73.5135 47.036 74.1075C46.8129 75.0453 46.5888 75.9829 46.3647 76.9205C45.7379 79.5429 45.1111 82.1653 44.5049 84.7925C44.3949 85.2692 44.4036 85.7994 44.4761 86.2872C44.7451 88.0961 45.2702 88.5628 47.104 88.5004C47.8717 88.4743 48.6406 88.296 49.3971 88.1206C49.4503 88.1083 49.5035 88.0959 49.5566 88.0837C52.3472 87.4393 55.137 86.7893 57.9162 86.0975C58.8064 85.8758 59.6896 85.626 60.5729 85.3762C61.4479 85.1287 62.3229 84.8811 63.2048 84.6611C64.9398 84.228 66.6801 83.816 68.4204 83.4039C69.5344 83.1402 70.6484 82.8764 71.761 82.6071C72.2932 82.4783 72.8224 82.3289 73.3514 82.1794C74.39 81.8861 75.428 81.5929 76.4867 81.4567C79.6282 81.0527 81.6731 79.1793 82.8619 76.5217C83.4839 75.131 83.7878 73.5954 84.091 72.063C84.2064 71.48 84.3217 70.8974 84.4544 70.3235C84.8292 68.7021 85.1902 67.0777 85.5513 65.4532C85.8645 64.0441 86.1777 62.635 86.4999 61.2279C86.5205 61.1376 86.5416 61.0473 86.5627 60.9568C86.8943 59.5325 87.2303 58.0898 86.1465 56.8316C84.1737 54.5415 82.1432 52.3007 80.1132 50.0606L79.8882 49.8123C79.5156 49.4011 79.0832 48.9242 78.5871 48.7688C77.4374 48.4085 76.2774 49.8017 76.0663 50.9865L76.0644 50.9971C75.6635 53.2468 75.2634 55.4924 73.7207 57.3402C72.9087 58.3128 71.9617 58.9848 70.7291 59.2759C69.4204 59.585 68.1165 59.915 66.8139 60.2496C65.858 60.4951 64.903 60.7444 63.9481 60.9937C62.5666 61.3543 61.1852 61.7149 59.8009 62.0641ZM55.2025 73.2865C55.3497 72.7325 55.4969 72.1784 55.6414 71.6237C56.3052 69.066 58.2588 68.3884 60.3283 67.8483C61.2514 67.6074 62.1726 67.3595 63.0938 67.1116C64.1995 66.8141 65.3051 66.5165 66.4139 66.2312C68.5479 65.6819 70.6883 65.1567 72.8297 64.6371C72.8907 64.6223 72.9483 64.6078 73.0036 64.5939C73.3623 64.5034 73.6193 64.4385 74.0011 64.5029C74.5109 64.5889 74.5643 64.6341 74.8792 64.9004C74.9159 64.9314 74.9561 64.9655 75.0011 65.0029C75.3344 65.5029 75.5 66.5 75.2164 68.6859C74.9328 70.8718 74.6303 71.7702 73.7301 73.1562C73.006 74.271 71.9394 74.632 70.8166 74.9328C69.2547 75.3513 67.6851 75.741 66.1155 76.1306C65.1136 76.3794 64.1116 76.6281 63.1117 76.8844C62.0494 77.1566 60.989 77.4361 59.9286 77.7156C58.5244 78.0858 57.1201 78.4559 55.7116 78.8091C54.7601 79.0476 53.945 78.2744 54.17 77.3222C54.4893 75.9711 54.8459 74.6288 55.2025 73.2865Z" fill="white"/>
<path d="M76.3105 51.041L76.3105 51.0409L76.3124 51.0304C76.3124 51.0304 76.3124 51.0304 76.3124 51.0304C76.4085 50.4914 76.7251 49.8933 77.1498 49.4767C77.5771 49.0576 78.0622 48.8663 78.5124 49.0073C78.713 49.0702 78.9145 49.2031 79.1191 49.3826C79.3232 49.5616 79.515 49.7727 79.703 49.9802L79.928 50.2285C81.9583 52.469 83.9867 54.7074 85.9571 56.9948C86.9462 58.1431 86.6561 59.4533 86.3192 60.9001C86.2981 60.9905 86.277 61.0813 86.2562 61.1721C85.9339 62.5795 85.6207 63.9887 85.3077 65.3971L85.3073 65.3989C84.9462 67.0236 84.5853 68.647 84.2108 70.2671C84.0772 70.8449 83.9613 71.4307 83.8462 72.0124L83.8458 72.0145C83.5415 73.5522 83.2422 75.0592 82.6337 76.4196C81.4738 79.0125 79.495 80.8178 76.4548 81.2088C75.3778 81.3473 74.3249 81.6447 73.2924 81.9363L73.2835 81.9389C72.7537 82.0885 72.229 82.2367 71.7022 82.3641C70.5903 82.6332 69.4769 82.8969 68.3628 83.1607L68.3606 83.1612C66.6213 83.573 64.8803 83.9852 63.1442 84.4185C62.2587 84.6395 61.3807 84.8879 60.507 85.135L60.5048 85.1356C59.621 85.3856 58.7416 85.6344 57.8558 85.8549C55.0789 86.5462 52.2909 87.1958 49.5003 87.8401L49.3406 87.8771C48.5796 88.0535 47.8347 88.2254 47.0955 88.2506C46.1844 88.2815 45.6816 88.174 45.3652 87.905C45.0472 87.6348 44.8574 87.1513 44.7234 86.2505C44.6539 85.7829 44.6477 85.2858 44.7485 84.8487C45.3545 82.2226 45.981 79.6012 46.6079 76.9786L46.6081 76.9775C46.8321 76.0403 47.0562 75.103 47.2793 74.1654C47.4212 73.5687 47.5504 72.9683 47.6788 72.371L47.6791 72.3697C47.9653 71.0388 48.2484 69.7237 48.6682 68.4563C49.3328 66.4502 50.7592 64.9905 52.7722 64.028C55.192 63.4539 57.5304 62.8945 59.862 62.3065C61.2473 61.9571 62.6295 61.5963 64.0106 61.2357L64.0112 61.2356C64.9663 60.9862 65.9208 60.7371 66.8761 60.4917C68.1782 60.1573 69.4803 59.8277 70.7866 59.5192C72.082 59.2133 73.0733 58.5057 73.9126 57.5005C75.4979 55.6016 75.9081 53.2994 76.3056 51.0686L76.3105 51.041ZM75.2091 64.8642L75.189 64.8341L75.1611 64.8109C75.117 64.7741 75.0774 64.7406 75.0406 64.7095L75.0244 64.6958C74.8816 64.5749 74.7667 64.4777 74.6205 64.4082C74.469 64.3363 74.2964 64.2992 74.0427 64.2564C73.609 64.1832 73.3082 64.2591 72.954 64.3485L72.9424 64.3514C72.887 64.3654 72.8304 64.3797 72.7708 64.3942C70.629 64.9138 68.4873 65.4394 66.3516 65.9891C65.2414 66.2748 64.1346 66.5726 63.0293 66.8701L63.0289 66.8702C62.1075 67.1182 61.1872 67.3658 60.2652 67.6064C59.2302 67.8765 58.1871 68.1892 57.3185 68.7717C56.4389 69.3616 55.7472 70.2213 55.3995 71.5607C55.2551 72.1146 55.1081 72.668 54.9609 73.2221L54.9609 73.2223L54.9604 73.2241C54.6041 74.5652 54.2468 75.9103 53.9267 77.2647C53.6566 78.408 54.6479 79.3335 55.7724 79.0516C57.1823 78.6981 58.5876 78.3276 59.9913 77.9576L59.9923 77.9574C61.0529 77.6778 62.1124 77.3985 63.1737 77.1265C64.1726 76.8706 65.1737 76.6221 66.1758 76.3733L66.1766 76.3731C67.7456 75.9836 69.3171 75.5934 70.8813 75.1743C72.0089 74.8722 73.1604 74.4922 73.9398 73.2923C74.3971 72.5882 74.7092 71.9976 74.9416 71.3C75.1729 70.6059 75.3219 69.816 75.4643 68.718C75.6073 67.6162 75.6389 66.8012 75.5893 66.1919C75.5397 65.5833 75.4079 65.1624 75.2091 64.8642Z" stroke="#E5E7EB" stroke-width="0.5"/>
</g>
<g filter="url(#filter4_ddi_168_9829)">
<path d="M74.9953 31.9336C77.0014 31.935 78.0627 33.5638 77.5488 35.6945C76.9177 38.311 76.2541 40.9204 75.6722 43.5479C75.1184 46.0484 74.7794 48.6029 74.1101 51.0696C73.4611 53.4614 71.9648 55.4333 69.7574 56.5571C68.4091 57.2435 66.7739 57.3685 65.266 57.739C63.3551 58.2085 61.4414 58.6669 59.5309 59.1381C56.785 59.8154 54.0417 60.5037 51.2956 61.1801C49.07 61.7283 47.8605 63.3749 47.0915 65.3271C46.5529 66.6945 46.3023 68.1817 45.9897 69.6298C45.7327 70.8198 44.7575 71.8246 43.7272 71.6903C43.309 71.6358 42.8522 71.3447 42.5495 71.0299C41.3465 69.7788 40.18 68.4912 39.0332 67.1878C37.8529 65.8462 36.4683 64.6009 35.6429 63.0615C35.1391 62.1218 35.3276 60.6707 35.5433 59.5122C36.1308 56.3574 36.8563 53.226 37.609 50.105C38.1002 48.0684 38.6233 46.0263 39.3311 44.0583C40.3156 41.321 42.3409 39.6605 45.1985 39.0301C46.8852 38.658 48.5684 38.269 50.2485 37.8681C53.1006 37.1875 55.9539 36.511 58.7971 35.795C60.6335 35.3326 62.4461 34.7763 64.2815 34.3098C66.9234 33.6384 69.5723 32.9934 72.2267 32.3736C73.1032 32.1689 74.0059 32.0771 74.9953 31.9336ZM52.6601 43.205C51.963 43.3914 51.2684 43.5881 50.5682 43.7623C48.8835 44.1815 47.6379 45.1493 47.0766 46.8024C46.6461 48.0703 46.3639 49.3907 46.0565 50.6974C45.8505 51.5735 45.6349 52.4608 45.5731 53.3534C45.5175 54.1571 46.1994 54.6696 46.9238 54.4959C48.7344 54.0618 50.545 53.6267 52.3488 53.1657C55.8861 52.2615 59.4402 51.4127 62.9425 50.3878C64.2952 49.992 65.3314 48.9637 65.7546 47.5344C66.2819 45.7537 66.8629 43.9739 67.1865 42.1521C67.5239 40.2522 67.2657 39.559 65.5591 39.9363C62.2653 40.6645 59.0266 41.6404 55.7588 42.4899C54.791 42.7416 53.8026 42.9141 52.6601 43.205Z" fill="white"/>
<path d="M52.5984 42.9627L52.5984 42.9627L52.5955 42.9635C52.3752 43.0224 52.1562 43.082 51.9379 43.1415C51.4606 43.2715 50.9864 43.4006 50.5079 43.5197C48.7564 43.9555 47.4334 44.974 46.8399 46.722C46.4697 47.8124 46.2077 48.9418 45.9497 50.0542C45.9043 50.2502 45.859 50.4456 45.8132 50.6402C45.804 50.6792 45.7948 50.7184 45.7855 50.7576C45.5889 51.5924 45.3843 52.4604 45.3237 53.3362C45.2557 54.3188 46.104 54.9496 46.9821 54.739C48.7925 54.305 50.6048 53.8695 52.4107 53.4079C53.2557 53.1919 54.1024 52.9789 54.9497 52.7657C57.644 52.0879 60.3441 51.4086 63.0127 50.6277C64.4491 50.2074 65.5476 49.1139 65.9943 47.6054C66.0814 47.3113 66.1702 47.0164 66.2593 46.7208C66.7066 45.2358 67.1602 43.73 67.4326 42.1958C67.5179 41.7155 67.5682 41.2981 67.5645 40.9487C67.5609 40.6025 67.5044 40.2939 67.3491 40.0543C67.1858 39.8024 66.9355 39.66 66.6205 39.6094C66.3159 39.5604 65.9439 39.5952 65.5052 39.6922C63.3194 40.1754 61.1525 40.7689 58.9925 41.3604C57.8924 41.6617 56.7941 41.9625 55.6959 42.248C55.2209 42.3715 54.74 42.4759 54.2318 42.5863L54.2219 42.5884C53.7114 42.6993 53.1745 42.816 52.5984 42.9627ZM75.0129 32.1837C75.9345 32.189 76.6122 32.5626 77.0094 33.1548C77.413 33.7566 77.5506 34.6205 77.3058 35.6359C77.1264 36.3795 76.9442 37.1233 76.762 37.8676C76.3038 39.7383 75.8449 41.6121 75.4281 43.4938C75.2092 44.4823 75.0235 45.48 74.8388 46.4725C74.789 46.7405 74.7392 47.0081 74.6888 47.2751C74.4514 48.5335 74.2008 49.7808 73.8688 51.0042C73.2367 53.334 71.7829 55.2454 69.644 56.3343C68.9991 56.6626 68.2786 56.8601 67.5194 57.022C67.2317 57.0834 66.9336 57.1405 66.6324 57.1981C66.1547 57.2896 65.6694 57.3825 65.2064 57.4962C64.32 57.714 63.4304 57.93 62.5404 58.1462C61.5164 58.3948 60.4918 58.6436 59.471 58.8954C58.1458 59.2223 56.8245 59.5509 55.5035 59.8794C54.0821 60.2329 52.6611 60.5863 51.2358 60.9373C48.8984 61.5131 47.6424 63.2464 46.8589 65.2355C46.4103 66.3743 46.1573 67.5971 45.9109 68.7882C45.856 69.0531 45.8016 69.3165 45.7453 69.577C45.627 70.1252 45.343 70.6283 44.9766 70.9751C44.6099 71.3223 44.1801 71.4972 43.7595 71.4424C43.4168 71.3978 43.0089 71.147 42.7297 70.8566C41.5301 69.609 40.3661 68.3243 39.2209 67.0226C38.9229 66.6839 38.6125 66.3518 38.304 66.0226L38.2649 65.9808C37.9688 65.6649 37.6751 65.3515 37.3918 65.0327C36.7999 64.3669 36.2623 63.6877 35.8633 62.9434C35.6408 62.5284 35.5624 61.9808 35.5732 61.3733C35.584 60.7696 35.6819 60.1336 35.7891 59.558C36.3753 56.4099 37.0996 53.2836 37.852 50.1637C38.343 48.1281 38.8635 46.0973 39.5664 44.1429C40.5194 41.4928 42.4716 39.8876 45.2523 39.2742C46.9407 38.9018 48.6253 38.5125 50.3065 38.1113C50.5738 38.0475 50.8411 37.9837 51.1085 37.92C53.6932 37.3036 56.2797 36.6867 58.8582 36.0375C59.78 35.8053 60.6953 35.5498 61.607 35.2947L61.6658 35.2783C62.5588 35.0284 63.4485 34.7795 64.3431 34.5521C66.9833 33.8811 69.6307 33.2365 72.2836 32.6171C72.9235 32.4676 73.574 32.38 74.2769 32.2853C74.5156 32.2531 74.7605 32.2201 75.0129 32.1837Z" stroke="#E5E7EB" stroke-width="0.5"/>
</g>
<g filter="url(#filter5_f_168_9829)">
<path d="M18 35C19.28 22.3714 30.5333 18.2698 36 18" stroke="white" stroke-width="5"/>
</g>
<g filter="url(#filter6_f_168_9829)">
<path d="M85 17C97.6286 18.28 101.73 29.5333 102 35" stroke="white" stroke-width="5"/>
</g>
<g filter="url(#filter7_f_168_9829)">
<path d="M35.2852 101.27C22.6566 99.9895 18.555 88.7362 18.2852 83.2695" stroke="white" stroke-width="5"/>
</g>
<g filter="url(#filter8_f_168_9829)">
<path d="M101.785 84.7695C100.505 97.3981 89.2518 101.5 83.7852 101.77" stroke="white" stroke-width="5"/>
</g>
</g>
</g>
<defs>
<filter id="filter0_ddddii_168_9829" x="0" y="0" width="120" height="120" filterUnits="userSpaceOnUse" color-interpolation-filters="sRGB">
<feFlood flood-opacity="0" result="BackgroundImageFix"/>
<feColorMatrix in="SourceAlpha" type="matrix" values="0 0 0 0 0 0 0 0 0 0 0 0 0 0 0 0 0 0 127 0" result="hardAlpha"/>
<feMorphology radius="2" operator="erode" in="SourceAlpha" result="effect1_dropShadow_168_9829"/>
<feOffset dy="2"/>
<feGaussianBlur stdDeviation="2"/>
<feColorMatrix type="matrix" values="0 0 0 0 0 0 0 0 0 0 0 0 0 0 0 0 0 0 0.05 0"/>
<feBlend mode="normal" in2="BackgroundImageFix" result="effect1_dropShadow_168_9829"/>
<feColorMatrix in="SourceAlpha" type="matrix" values="0 0 0 0 0 0 0 0 0 0 0 0 0 0 0 0 0 0 127 0" result="hardAlpha"/>
<feMorphology radius="1" operator="erode" in="SourceAlpha" result="effect2_dropShadow_168_9829"/>
<feOffset dy="4"/>
<feGaussianBlur stdDeviation="3"/>
<feColorMatrix type="matrix" values="0 0 0 0 0 0 0 0 0 0 0 0 0 0 0 0 0 0 0.1 0"/>
<feBlend mode="normal" in2="effect1_dropShadow_168_9829" result="effect2_dropShadow_168_9829"/>
<feColorMatrix in="SourceAlpha" type="matrix" values="0 0 0 0 0 0 0 0 0 0 0 0 0 0 0 0 0 0 127 0" result="hardAlpha"/>
<feMorphology radius="10" operator="dilate" in="SourceAlpha" result="effect3_dropShadow_168_9829"/>
<feOffset/>
<feComposite in2="hardAlpha" operator="out"/>
<feColorMatrix type="matrix" values="0 0 0 0 0.768627 0 0 0 0 0.988235 0 0 0 0 0.886275 0 0 0 1 0"/>
<feBlend mode="normal" in2="effect2_dropShadow_168_9829" result="effect3_dropShadow_168_9829"/>
<feColorMatrix in="SourceAlpha" type="matrix" values="0 0 0 0 0 0 0 0 0 0 0 0 0 0 0 0 0 0 127 0" result="hardAlpha"/>
<feMorphology radius="5" operator="dilate" in="SourceAlpha" result="effect4_dropShadow_168_9829"/>
<feOffset/>
<feComposite in2="hardAlpha" operator="out"/>
<feColorMatrix type="matrix" values="0 0 0 0 0.388235 0 0 0 0 0.964706 0 0 0 0 0.694118 0 0 0 1 0"/>
<feBlend mode="normal" in2="effect3_dropShadow_168_9829" result="effect4_dropShadow_168_9829"/>
<feBlend mode="normal" in="SourceGraphic" in2="effect4_dropShadow_168_9829" result="shape"/>
<feColorMatrix in="SourceAlpha" type="matrix" values="0 0 0 0 0 0 0 0 0 0 0 0 0 0 0 0 0 0 127 0" result="hardAlpha"/>
<feOffset dy="-4"/>
<feGaussianBlur stdDeviation="4"/>
<feComposite in2="hardAlpha" operator="arithmetic" k2="-1" k3="1"/>
<feColorMatrix type="matrix" values="0 0 0 0 0.00636816 0 0 0 0 0.633632 0 0 0 0 0.337512 0 0 0 1 0"/>
<feBlend mode="normal" in2="shape" result="effect5_innerShadow_168_9829"/>
<feColorMatrix in="SourceAlpha" type="matrix" values="0 0 0 0 0 0 0 0 0 0 0 0 0 0 0 0 0 0 127 0" result="hardAlpha"/>
<feOffset dy="-4"/>
<feGaussianBlur stdDeviation="4"/>
<feComposite in2="hardAlpha" operator="arithmetic" k2="-1" k3="1"/>
<feColorMatrix type="matrix" values="0 0 0 0 0.00636816 0 0 0 0 0.633632 0 0 0 0 0.337512 0 0 0 1 0"/>
<feBlend mode="normal" in2="effect5_innerShadow_168_9829" result="effect6_innerShadow_168_9829"/>
</filter>
<filter id="filter1_f_168_9829" x="-13.1" y="39.2619" width="89.6267" height="97.1163" filterUnits="userSpaceOnUse" color-interpolation-filters="sRGB">
<feFlood flood-opacity="0" result="BackgroundImageFix"/>
<feBlend mode="normal" in="SourceGraphic" in2="BackgroundImageFix" result="shape"/>
<feGaussianBlur stdDeviation="7.55" result="effect1_foregroundBlur_168_9829"/>
</filter>
<filter id="filter2_f_168_9829" x="45.3722" y="40.2444" width="84.4973" height="94.319" filterUnits="userSpaceOnUse" color-interpolation-filters="sRGB">
<feFlood flood-opacity="0" result="BackgroundImageFix"/>
<feBlend mode="normal" in="SourceGraphic" in2="BackgroundImageFix" result="shape"/>
<feGaussianBlur stdDeviation="7.55" result="effect1_foregroundBlur_168_9829"/>
</filter>
<filter id="filter3_ddi_168_9829" x="41.4219" y="46.7109" width="48.4639" height="45.7949" filterUnits="userSpaceOnUse" color-interpolation-filters="sRGB">
<feFlood flood-opacity="0" result="BackgroundImageFix"/>
<feColorMatrix in="SourceAlpha" type="matrix" values="0 0 0 0 0 0 0 0 0 0 0 0 0 0 0 0 0 0 127 0" result="hardAlpha"/>
<feMorphology radius="1" operator="erode" in="SourceAlpha" result="effect1_dropShadow_168_9829"/>
<feOffset dy="1"/>
<feGaussianBlur stdDeviation="1"/>
<feColorMatrix type="matrix" values="0 0 0 0 0 0 0 0 0 0 0 0 0 0 0 0 0 0 0.1 0"/>
<feBlend mode="normal" in2="BackgroundImageFix" result="effect1_dropShadow_168_9829"/>
<feColorMatrix in="SourceAlpha" type="matrix" values="0 0 0 0 0 0 0 0 0 0 0 0 0 0 0 0 0 0 127 0" result="hardAlpha"/>
<feOffset dy="1"/>
<feGaussianBlur stdDeviation="1.5"/>
<feColorMatrix type="matrix" values="0 0 0 0 0 0 0 0 0 0 0 0 0 0 0 0 0 0 0.1 0"/>
<feBlend mode="normal" in2="effect1_dropShadow_168_9829" result="effect2_dropShadow_168_9829"/>
<feBlend mode="normal" in="SourceGraphic" in2="effect2_dropShadow_168_9829" result="shape"/>
<feColorMatrix in="SourceAlpha" type="matrix" values="0 0 0 0 0 0 0 0 0 0 0 0 0 0 0 0 0 0 127 0" result="hardAlpha"/>
<feOffset dy="-1"/>
<feGaussianBlur stdDeviation="2"/>
<feComposite in2="hardAlpha" operator="arithmetic" k2="-1" k3="1"/>
<feColorMatrix type="matrix" values="0 0 0 0 0.229167 0 0 0 0 0.229167 0 0 0 0 0.229167 0 0 0 0.25 0"/>
<feBlend mode="normal" in2="shape" result="effect3_innerShadow_168_9829"/>
</filter>
<filter id="filter4_ddi_168_9829" x="32.3223" y="29.9336" width="48.3551" height="45.7688" filterUnits="userSpaceOnUse" color-interpolation-filters="sRGB">
<feFlood flood-opacity="0" result="BackgroundImageFix"/>
<feColorMatrix in="SourceAlpha" type="matrix" values="0 0 0 0 0 0 0 0 0 0 0 0 0 0 0 0 0 0 127 0" result="hardAlpha"/>
<feMorphology radius="1" operator="erode" in="SourceAlpha" result="effect1_dropShadow_168_9829"/>
<feOffset dy="1"/>
<feGaussianBlur stdDeviation="1"/>
<feColorMatrix type="matrix" values="0 0 0 0 0 0 0 0 0 0 0 0 0 0 0 0 0 0 0.1 0"/>
<feBlend mode="normal" in2="BackgroundImageFix" result="effect1_dropShadow_168_9829"/>
<feColorMatrix in="SourceAlpha" type="matrix" values="0 0 0 0 0 0 0 0 0 0 0 0 0 0 0 0 0 0 127 0" result="hardAlpha"/>
<feOffset dy="1"/>
<feGaussianBlur stdDeviation="1.5"/>
<feColorMatrix type="matrix" values="0 0 0 0 0 0 0 0 0 0 0 0 0 0 0 0 0 0 0.1 0"/>
<feBlend mode="normal" in2="effect1_dropShadow_168_9829" result="effect2_dropShadow_168_9829"/>
<feBlend mode="normal" in="SourceGraphic" in2="effect2_dropShadow_168_9829" result="shape"/>
<feColorMatrix in="SourceAlpha" type="matrix" values="0 0 0 0 0 0 0 0 0 0 0 0 0 0 0 0 0 0 127 0" result="hardAlpha"/>
<feOffset dy="-1"/>
<feGaussianBlur stdDeviation="2"/>
<feComposite in2="hardAlpha" operator="arithmetic" k2="-1" k3="1"/>
<feColorMatrix type="matrix" values="0 0 0 0 0.229167 0 0 0 0 0.229167 0 0 0 0 0.229167 0 0 0 0.25 0"/>
<feBlend mode="normal" in2="shape" result="effect3_innerShadow_168_9829"/>
</filter>
<filter id="filter5_f_168_9829" x="-4.48724" y="-4.49695" width="60.6105" height="59.749" filterUnits="userSpaceOnUse" color-interpolation-filters="sRGB">
<feFlood flood-opacity="0" result="BackgroundImageFix"/>
<feBlend mode="normal" in="SourceGraphic" in2="BackgroundImageFix" result="shape"/>
<feGaussianBlur stdDeviation="10" result="effect1_foregroundBlur_168_9829"/>
</filter>
<filter id="filter6_f_168_9829" x="64.7479" y="-5.4873" width="59.7491" height="60.6106" filterUnits="userSpaceOnUse" color-interpolation-filters="sRGB">
<feFlood flood-opacity="0" result="BackgroundImageFix"/>
<feBlend mode="normal" in="SourceGraphic" in2="BackgroundImageFix" result="shape"/>
<feGaussianBlur stdDeviation="10" result="effect1_foregroundBlur_168_9829"/>
</filter>
<filter id="filter7_f_168_9829" x="-4.21179" y="63.1463" width="59.7491" height="60.6105" filterUnits="userSpaceOnUse" color-interpolation-filters="sRGB">
<feFlood flood-opacity="0" result="BackgroundImageFix"/>
<feBlend mode="normal" in="SourceGraphic" in2="BackgroundImageFix" result="shape"/>
<feGaussianBlur stdDeviation="10" result="effect1_foregroundBlur_168_9829"/>
</filter>
<filter id="filter8_f_168_9829" x="63.6619" y="64.5175" width="60.6105" height="59.749" filterUnits="userSpaceOnUse" color-interpolation-filters="sRGB">
<feFlood flood-opacity="0" result="BackgroundImageFix"/>
<feBlend mode="normal" in="SourceGraphic" in2="BackgroundImageFix" result="shape"/>
<feGaussianBlur stdDeviation="10" result="effect1_foregroundBlur_168_9829"/>
</filter>
<linearGradient id="paint0_linear_168_9829" x1="14.8368" y1="111.024" x2="57.7591" y2="57.2917" gradientUnits="userSpaceOnUse">
<stop stop-color="white" stop-opacity="0.6"/>
<stop offset="1" stop-color="white"/>
</linearGradient>
<linearGradient id="paint1_linear_168_9829" x1="103.196" y1="110.866" x2="63.779" y2="57.8007" gradientUnits="userSpaceOnUse">
<stop stop-color="white" stop-opacity="0.6"/>
<stop offset="1" stop-color="white"/>
</linearGradient>
<clipPath id="clip0_168_9829">
<path d="M10 42C10 24.3269 24.3269 10 42 10H78C95.6731 10 110 24.3269 110 42V78C110 95.6731 95.6731 110 78 110H42C24.3269 110 10 95.6731 10 78V42Z" fill="white"/>
</clipPath>
</defs>
</svg>
