<svg width="20" height="22" viewBox="0 0 20 22" fill="none" xmlns="http://www.w3.org/2000/svg">
<g clip-path="url(#clip0_1273_38971)">
<path fill-rule="evenodd" clip-rule="evenodd" d="M10.3601 11.6948C9.57003 11.8941 8.77748 12.0836 7.95669 12.2784C7.25506 12.6117 6.75177 13.1223 6.51787 13.8284C6.3743 14.2617 6.27776 14.7107 6.18121 15.1596C6.13774 15.3618 6.09426 15.5639 6.0465 15.7647C5.97109 16.0816 5.89536 16.3984 5.81963 16.7152C5.60782 17.6014 5.39601 18.4876 5.19115 19.3755C5.15398 19.5365 5.15691 19.7157 5.18142 19.8806C5.27231 20.4918 5.44976 20.6495 6.06946 20.6285C6.3289 20.6197 6.58871 20.5594 6.84436 20.5001C6.86235 20.496 6.88031 20.4918 6.89826 20.4876C7.84131 20.2699 8.78407 20.0502 9.72323 19.8164C10.0241 19.7415 10.3225 19.6571 10.621 19.5727C10.9167 19.489 11.2124 19.4054 11.5104 19.331C12.0967 19.1847 12.6848 19.0455 13.2729 18.9062C13.6494 18.8171 14.0258 18.7279 14.4018 18.637C14.5817 18.5934 14.7605 18.5429 14.9393 18.4924C15.2902 18.3933 15.641 18.2942 15.9988 18.2482C17.0604 18.1117 17.7514 17.4786 18.1532 16.5805C18.3634 16.1105 18.4661 15.5916 18.5685 15.0738C18.6075 14.8767 18.6465 14.6799 18.6913 14.4859C18.818 13.938 18.94 13.3891 19.062 12.8401C19.1678 12.3639 19.2737 11.8877 19.3825 11.4122C19.3895 11.3817 19.3966 11.3512 19.4038 11.3206C19.5158 10.8393 19.6294 10.3518 19.2631 9.9266C18.5965 9.15269 17.9103 8.39548 17.2243 7.63847L17.1483 7.55456C17.0223 7.4156 16.8762 7.25445 16.7086 7.20192C16.3201 7.08018 15.9281 7.55099 15.8567 7.95137L15.8561 7.95494C15.7206 8.7152 15.5854 9.47405 15.0641 10.0985C14.7897 10.4271 14.4697 10.6542 14.0531 10.7526C13.6109 10.8571 13.1702 10.9686 12.7301 11.0816C12.407 11.1646 12.0843 11.2488 11.7616 11.3331C11.2948 11.455 10.8279 11.5768 10.3601 11.6948ZM8.80619 15.4872C8.85593 15.3 8.90567 15.1128 8.95452 14.9253C9.17884 14.061 9.839 13.832 10.5384 13.6495C10.8503 13.5681 11.1616 13.4843 11.4729 13.4005C11.8466 13.3 12.2202 13.1994 12.5949 13.103C13.316 12.9174 14.0393 12.7399 14.763 12.5643C14.7836 12.5593 14.8031 12.5544 14.8217 12.5497C14.943 12.5191 15.0298 12.4972 15.1588 12.519C15.3311 12.548 15.3492 12.5633 15.4556 12.6533C15.468 12.6638 15.4816 12.6753 15.4967 12.6879C15.6094 12.8569 15.6653 13.1939 15.5695 13.9325C15.4737 14.6712 15.3714 14.9748 15.0672 15.4432C14.8226 15.8199 14.4621 15.9419 14.0827 16.0436C13.5549 16.185 13.0245 16.3167 12.494 16.4483C12.1555 16.5324 11.8169 16.6165 11.4789 16.7031C11.12 16.795 10.7616 16.8895 10.4033 16.984C9.92875 17.109 9.45421 17.2341 8.97822 17.3535C8.65668 17.4341 8.38126 17.1728 8.45729 16.851C8.56518 16.3944 8.68569 15.9408 8.80619 15.4872Z" fill="#050020"/>
<path d="M15.4956 1.5144C16.1735 1.51487 16.5322 2.06531 16.3585 2.78533C16.1453 3.66953 15.921 4.55133 15.7244 5.43923C15.5372 6.28423 15.4227 7.14747 15.1965 7.98107C14.9772 8.7893 14.4715 9.4557 13.7256 9.83545C13.2699 10.0674 12.7174 10.1096 12.2078 10.2349C11.562 10.3935 10.9153 10.5484 10.2697 10.7077C9.34178 10.9365 8.41476 11.1691 7.48675 11.3977C6.73465 11.583 6.32592 12.1394 6.06606 12.7991C5.88404 13.2612 5.79937 13.7638 5.69372 14.2531C5.60689 14.6553 5.27733 14.9948 4.92914 14.9494C4.78782 14.931 4.63345 14.8326 4.53118 14.7263C4.12465 14.3035 3.73044 13.8683 3.34291 13.4279C2.94404 12.9745 2.47614 12.5537 2.19723 12.0335C2.02696 11.7159 2.09066 11.2256 2.16356 10.8341C2.3621 9.76797 2.60727 8.70977 2.86162 7.6551C3.02761 6.96686 3.20439 6.27678 3.44358 5.61171C3.77626 4.68669 4.46067 4.12555 5.42634 3.91253C5.99634 3.78679 6.56514 3.65534 7.13291 3.51986C8.09671 3.28987 9.06092 3.06125 10.0218 2.8193C10.6423 2.66304 11.2549 2.47504 11.8751 2.31741C12.7679 2.09052 13.663 1.87256 14.56 1.6631C14.8562 1.59394 15.1613 1.56288 15.4956 1.5144ZM7.94785 5.32336C7.71227 5.38636 7.47755 5.45281 7.24095 5.51169C6.67163 5.65336 6.25071 5.9804 6.06103 6.53903C5.91555 6.96749 5.82018 7.41372 5.71631 7.85529C5.64667 8.15135 5.57383 8.45119 5.55296 8.75283C5.53416 9.02441 5.76459 9.19761 6.00939 9.13892C6.62124 8.99222 7.23309 8.84519 7.84266 8.68938C9.03801 8.38384 10.2391 8.09698 11.4226 7.75065C11.8797 7.61689 12.2299 7.26939 12.3729 6.7864C12.5511 6.18466 12.7474 5.5832 12.8568 4.96755C12.9708 4.32553 12.8835 4.09128 12.3068 4.21877C11.1937 4.46485 10.0993 4.79463 8.99502 5.08172C8.66796 5.16675 8.33394 5.22505 7.94785 5.32336Z" fill="#050020"/>
</g>
<defs>
<clipPath id="clip0_1273_38971">
<rect width="18.9677" height="20.2759" fill="white" transform="translate(0.967773 0.862061)"/>
</clipPath>
</defs>
</svg>
