<svg width="19" height="22" viewBox="0 0 19 22" fill="none" xmlns="http://www.w3.org/2000/svg">
<g clip-path="url(#clip0_168_9843)">
<path fill-rule="evenodd" clip-rule="evenodd" d="M9.39431 11.6948C8.60421 11.8941 7.81166 12.0836 6.99087 12.2784C6.28924 12.6117 5.78595 13.1223 5.55205 13.8284C5.40848 14.2617 5.31194 14.7107 5.21539 15.1596C5.17192 15.3618 5.12844 15.5639 5.08068 15.7647C5.00527 16.0816 4.92954 16.3984 4.85381 16.7152C4.642 17.6014 4.43019 18.4876 4.22533 19.3755C4.18816 19.5365 4.19109 19.7157 4.2156 19.8806C4.30649 20.4918 4.48394 20.6495 5.10364 20.6285C5.36308 20.6197 5.62289 20.5594 5.87854 20.5001C5.89652 20.496 5.91449 20.4918 5.93244 20.4876C6.87549 20.2699 7.81825 20.0502 8.75741 19.8164C9.05825 19.7415 9.35672 19.6571 9.65519 19.5727C9.95088 19.489 10.2466 19.4054 10.5446 19.331C11.1309 19.1847 11.719 19.0455 12.3071 18.9062C12.6836 18.8171 13.06 18.7279 13.436 18.637C13.6159 18.5934 13.7947 18.5429 13.9735 18.4924C14.3244 18.3933 14.6752 18.2942 15.033 18.2482C16.0946 18.1117 16.7856 17.4786 17.1873 16.5805C17.3975 16.1105 17.5002 15.5916 17.6027 15.0738C17.6417 14.8767 17.6807 14.6799 17.7255 14.4859C17.8521 13.938 17.9742 13.3891 18.0962 12.8401C18.202 12.3639 18.3079 11.8877 18.4167 11.4122C18.4237 11.3817 18.4308 11.3512 18.4379 11.3206C18.55 10.8393 18.6636 10.3518 18.2973 9.9266C17.6307 9.15269 16.9445 8.39548 16.2585 7.63847L16.1824 7.55456C16.0565 7.4156 15.9104 7.25445 15.7428 7.20192C15.3542 7.08018 14.9622 7.55099 14.8909 7.95137L14.8903 7.95494C14.7548 8.7152 14.6196 9.47405 14.0982 10.0985C13.8239 10.4271 13.5038 10.6542 13.0873 10.7526C12.645 10.8571 12.2044 10.9686 11.7642 11.0816C11.4412 11.1646 11.1185 11.2488 10.7958 11.3331C10.3289 11.455 9.86212 11.5768 9.39431 11.6948ZM7.84037 15.4872C7.89011 15.3 7.93985 15.1128 7.9887 14.9253C8.21302 14.061 8.87318 13.832 9.57255 13.6495C9.88448 13.5681 10.1958 13.4843 10.5071 13.4005C10.8807 13.3 11.2544 13.1994 11.6291 13.103C12.3502 12.9174 13.0735 12.7399 13.7972 12.5643C13.8177 12.5593 13.8372 12.5544 13.8559 12.5497C13.9771 12.5191 14.064 12.4972 14.193 12.519C14.3653 12.548 14.3833 12.5633 14.4897 12.6533C14.5021 12.6638 14.5157 12.6753 14.5309 12.6879C14.6436 12.8569 14.6995 13.1939 14.6037 13.9325C14.5078 14.6712 14.4056 14.9748 14.1014 15.4432C13.8567 15.8199 13.4963 15.9419 13.1169 16.0436C12.5891 16.185 12.0586 16.3167 11.5282 16.4483C11.1896 16.5324 10.8511 16.6165 10.5131 16.7031C10.1542 16.795 9.79582 16.8895 9.43748 16.984C8.96293 17.109 8.48839 17.2341 8.0124 17.3535C7.69086 17.4341 7.41544 17.1728 7.49147 16.851C7.59936 16.3944 7.71987 15.9408 7.84037 15.4872Z" fill="white" fill-opacity="0.7"/>
<path d="M14.5279 1.5144C15.2058 1.51487 15.5644 2.06531 15.3907 2.78533C15.1775 3.66953 14.9532 4.55133 14.7566 5.43923C14.5694 6.28423 14.4549 7.14747 14.2287 7.98107C14.0094 8.7893 13.5037 9.4557 12.7578 9.83545C12.3022 10.0674 11.7496 10.1096 11.24 10.2349C10.5943 10.3935 9.94756 10.5484 9.30194 10.7077C8.374 10.9365 7.44699 11.1691 6.51898 11.3977C5.76688 11.583 5.35815 12.1394 5.09829 12.7991C4.91627 13.2612 4.83159 13.7638 4.72594 14.2531C4.63912 14.6553 4.30956 14.9948 3.96137 14.9494C3.82004 14.931 3.66568 14.8326 3.5634 14.7263C3.15687 14.3035 2.76266 13.8683 2.37514 13.4279C1.97626 12.9745 1.50837 12.5537 1.22945 12.0335C1.05919 11.7159 1.12289 11.2256 1.19579 10.8341C1.39432 9.76797 1.6395 8.70977 1.89385 7.6551C2.05984 6.96686 2.23662 6.27678 2.47581 5.61171C2.80848 4.68669 3.4929 4.12555 4.45856 3.91253C5.02856 3.78679 5.59737 3.65534 6.16513 3.51986C7.12894 3.28987 8.09315 3.06125 9.05398 2.8193C9.67454 2.66304 10.2871 2.47504 10.9073 2.31741C11.8001 2.09052 12.6952 1.87256 13.5923 1.6631C13.8884 1.59394 14.1935 1.56288 14.5279 1.5144ZM6.98007 5.32336C6.7445 5.38636 6.50978 5.45281 6.27318 5.51169C5.70386 5.65336 5.28294 5.9804 5.09326 6.53903C4.94778 6.96749 4.85241 7.41372 4.74854 7.85529C4.6789 8.15135 4.60606 8.45119 4.58518 8.75283C4.56639 9.02441 4.79682 9.19761 5.04162 9.13892C5.65347 8.99222 6.26532 8.84519 6.87489 8.68938C8.07024 8.38384 9.27129 8.09698 10.4548 7.75065C10.9119 7.61689 11.2621 7.26939 11.4051 6.7864C11.5833 6.18466 11.7797 5.5832 11.889 4.96755C12.003 4.32553 11.9158 4.09128 11.3391 4.21877C10.226 4.46485 9.13151 4.79463 8.02725 5.08172C7.70018 5.16675 7.36617 5.22505 6.98007 5.32336Z" fill="white" fill-opacity="0.7"/>
</g>
<defs>
<clipPath id="clip0_168_9843">
<rect width="18.9677" height="20.2759" fill="white" transform="translate(0 0.862061)"/>
</clipPath>
</defs>
</svg>
