<svg width="72" height="72" viewBox="0 0 72 72" fill="none" xmlns="http://www.w3.org/2000/svg">
<path d="M67.5305 22.2811C65.8375 19.8357 63.3077 17.6368 59.9412 15.6973C56.5682 13.7513 52.7673 12.2919 48.5381 11.3124C44.3024 10.333 40.0018 9.83999 35.6299 9.8335C31.258 9.82701 26.964 10.3005 22.7413 11.267C18.5186 12.227 14.7305 13.6735 11.3834 15.6065C8.03641 17.5395 5.53259 19.7254 3.86557 22.1643C2.19854 24.6032 1.37487 27.0811 1.38785 29.6043C1.40082 31.7773 2.03645 33.9178 3.28834 36.0324C3.48942 36.3762 3.70997 36.7135 3.94348 37.0573C5.63646 39.4962 8.16614 41.6951 11.5391 43.6411C13.5759 44.8151 15.7682 45.8141 18.1228 46.6378C19.6601 47.1762 21.2689 47.6368 22.9424 48.0195C24.363 48.3503 25.7964 48.6227 27.2364 48.8368C30.0775 49.2778 32.9445 49.4919 35.844 49.4984C40.2159 49.4984 44.51 49.0313 48.7327 48.0714C52.9554 47.1049 56.7435 45.6584 60.0905 43.7254C63.4375 41.7924 65.9478 39.6065 67.6083 37.1676C67.8094 36.8692 68.004 36.5708 68.1856 36.2724C69.4569 34.1449 70.0926 31.9784 70.0926 29.7859V29.7276C70.0732 27.2043 69.2234 24.72 67.5305 22.2811ZM29.6105 19.1416C30.6224 18.5643 31.8353 18.2724 33.2494 18.2724C34.6634 18.2789 35.883 18.5708 36.8949 19.1546C37.9067 19.7449 38.4191 20.4454 38.4256 21.2627C38.4256 21.853 38.1661 22.3849 37.6407 22.8519C37.4397 23.0335 37.1996 23.2022 36.9207 23.3643C35.9088 23.9416 34.6959 24.2335 33.2818 24.2335C31.8678 24.227 30.6482 23.9351 29.6363 23.3514C29.5196 23.28 29.4093 23.2151 29.3055 23.1438C28.5077 22.5989 28.1122 21.9632 28.1057 21.2432C28.0992 20.4259 28.6051 19.7254 29.6105 19.1416ZM40.858 39.3665C40.5207 39.9373 39.7813 40.2941 38.6462 40.4303C35.6949 40.7741 32.7953 40.6573 29.9412 40.08C27.0807 39.5027 24.577 38.5946 22.43 37.3492C20.2376 36.0843 18.6483 34.6249 17.6688 32.9643C16.6894 31.3038 16.5207 29.6108 17.1563 27.8789C17.3574 27.2497 17.9413 26.8411 18.9078 26.6595C19.8808 26.4714 20.7305 26.5881 21.4635 27.0162C21.7878 27.1978 22.0084 27.4119 22.1316 27.6454C22.2549 27.8789 22.2742 28.1384 22.1964 28.4173C21.8786 29.6757 22.0602 30.9081 22.7348 32.1146C23.4094 33.3211 24.5185 34.3654 26.0558 35.2541C27.5996 36.1492 29.4159 36.7849 31.498 37.1741C33.5867 37.5632 35.7207 37.667 37.9066 37.4854C38.3477 37.4141 38.7759 37.4141 39.1781 37.4854C39.5867 37.5568 39.95 37.6865 40.2743 37.8746C41.0073 38.2962 41.2018 38.7957 40.858 39.3665ZM53.9672 33.2043C52.9553 33.7881 51.7424 34.0735 50.3284 34.0735C48.9143 34.0735 47.6948 33.7751 46.6829 33.1913C45.6645 32.6076 45.1586 31.9005 45.1521 31.0832C45.1457 30.2659 45.6515 29.5654 46.6569 28.9881C47.6688 28.4043 48.8818 28.1124 50.2959 28.1189C51.7099 28.1189 52.9293 28.4108 53.9412 29.0011C54.9596 29.5849 55.4656 30.2854 55.4721 31.1027C55.4721 31.92 54.9726 32.6205 53.9672 33.2043Z" fill="#02C76A" stroke="#050020" stroke-width="1.2973" stroke-linecap="round" stroke-linejoin="round"/>
<path d="M40.8583 39.3665C40.521 39.9373 39.7816 40.294 38.6465 40.4302C35.6951 40.774 32.7955 40.6573 29.9415 40.08C27.0809 39.5027 24.5773 38.5946 22.4302 37.3492C20.2378 36.0843 18.6486 34.6248 17.6691 32.9643C16.6896 31.3038 16.521 29.6108 17.1567 27.8789C17.3577 27.2497 17.9417 26.8411 18.9081 26.6594C19.8811 26.4713 20.7308 26.5881 21.4638 27.0162C21.7881 27.1978 22.0087 27.4119 22.1319 27.6454C22.2552 27.8789 22.2745 28.1383 22.1967 28.4173C21.8788 29.6756 22.0605 30.9081 22.7351 32.1146C23.4097 33.3211 24.5188 34.3654 26.0561 35.254C27.5999 36.1492 29.4162 36.7848 31.4984 37.174C33.587 37.5632 35.721 37.667 37.9069 37.4854C38.348 37.414 38.7763 37.414 39.1784 37.4854C39.5871 37.5567 39.9502 37.6865 40.2746 37.8746C41.0075 38.2962 41.2021 38.7956 40.8583 39.3665Z" fill="#02C76A" stroke="#050020" stroke-width="1.2973" stroke-linecap="round" stroke-linejoin="round"/>
<path d="M55.4723 31.1027C55.4723 31.92 54.9728 32.6206 53.9674 33.2043C52.9555 33.7881 51.7427 34.0735 50.3286 34.0735C48.9146 34.0735 47.695 33.7752 46.6832 33.1914C45.6648 32.6076 45.1589 31.9006 45.1524 31.0833C45.1459 30.266 45.6517 29.5654 46.6571 28.9881C47.669 28.4043 48.8821 28.1125 50.2961 28.1189C51.7102 28.1189 52.9296 28.4108 53.9415 29.0011C54.9598 29.5849 55.4659 30.2854 55.4723 31.1027Z" fill="#02C76A" stroke="#050020" stroke-width="1.2973" stroke-linecap="round" stroke-linejoin="round"/>
<path d="M38.4264 21.2627C38.4264 21.853 38.167 22.3849 37.6416 22.8519C37.4405 23.0335 37.2004 23.2022 36.9215 23.3644C35.9096 23.9416 34.6968 24.2335 33.2827 24.2335C31.8687 24.2271 30.6491 23.9352 29.6372 23.3514C29.5204 23.28 29.4102 23.2152 29.3064 23.1438C28.5085 22.5989 28.113 21.9633 28.1065 21.2433C28.1 20.426 28.606 19.7254 29.6114 19.1417C30.6233 18.5644 31.8362 18.2725 33.2502 18.2725C34.6643 18.2789 35.8838 18.5708 36.8957 19.1546C37.9076 19.7449 38.42 20.4454 38.4264 21.2627Z" fill="#02C76A" stroke="#050020" stroke-width="1.2973" stroke-linecap="round" stroke-linejoin="round"/>
<path d="M70.0934 29.7859V42.7005C70.1064 45.2238 69.2762 47.7081 67.6091 50.1405C65.9486 52.5794 63.4384 54.7654 60.0913 56.6984C56.7443 58.6313 52.9562 60.0778 48.7335 61.0443C44.5108 62.0043 40.2167 62.4778 35.8448 62.4713C31.4794 62.4648 27.1724 61.9719 22.9432 60.9924C18.7076 60.0194 14.9064 58.56 11.5399 56.614C8.16696 54.6681 5.63728 52.4692 3.94431 50.0303C2.25782 47.5848 1.40164 45.1005 1.38867 42.5773V29.6043C1.40164 31.7773 2.03727 33.9178 3.28917 36.0324C3.49025 36.3762 3.71079 36.7135 3.94431 37.0573C5.63728 39.4962 8.16696 41.6951 11.5399 43.6411C13.5767 44.8151 15.7691 45.814 18.1236 46.6378C19.6609 47.1762 21.2697 47.6367 22.9432 48.0194C24.3638 48.3503 25.7972 48.6227 27.2372 48.8367C30.0783 49.2778 32.9453 49.4919 35.8448 49.4984C40.2167 49.4984 44.5108 49.0313 48.7335 48.0713C52.9562 47.1048 56.7443 45.6584 60.0913 43.7254C63.4384 41.7924 65.9486 39.6065 67.6091 37.1676C67.8102 36.8692 68.0048 36.5708 68.1864 36.2724C69.4578 34.1448 70.0934 31.9784 70.0934 29.7859Z" fill="#02C76A" stroke="#050020" stroke-width="1.2973" stroke-linecap="round" stroke-linejoin="round"/>
</svg>
