<svg width="73" height="72" viewBox="0 0 73 72" fill="none" xmlns="http://www.w3.org/2000/svg">
<path d="M51.4016 27.6023V27.8257C51.3954 27.8133 51.3706 27.8133 51.3706 27.8133C51.3892 27.745 51.3954 27.6767 51.4016 27.6023ZM51.4016 27.6023V26.9009C51.4265 27.1429 51.4265 27.3726 51.4016 27.6023Z" fill="#9D89F5"/>
<path d="M51.4016 27.6023V27.8257C51.3954 27.8133 51.3706 27.8133 51.3706 27.8133C51.3892 27.745 51.3954 27.6767 51.4016 27.6023ZM51.4016 27.6023V26.9009C51.4265 27.1429 51.4265 27.3726 51.4016 27.6023Z" stroke="#050020" stroke-width="1.24138" stroke-linecap="round" stroke-linejoin="round"/>
<path d="M68.551 22.2519C66.8254 19.794 64.2682 17.5843 60.8854 15.6291C57.4965 13.674 53.673 12.1967 49.4151 11.2036C45.1261 10.2167 40.8185 9.73258 36.4179 9.72637C32.0172 9.71396 27.6661 10.1857 23.4144 11.1664C19.1627 12.1222 15.3517 13.5809 11.9627 15.5422C8.59855 17.485 6.06613 19.6822 4.39647 22.1526C2.72061 24.5919 1.9013 27.0995 1.91371 29.6443C1.92613 31.7174 2.49097 33.7595 3.63304 35.7953C3.88752 36.2484 4.16682 36.6953 4.47716 37.1484C5.33992 38.3774 6.3951 39.5443 7.66751 40.6553H7.67372C8.94613 41.7602 10.4234 42.8029 12.1179 43.7836C14.793 45.3291 17.7537 46.5643 20.9813 47.4953C21.5772 47.6815 22.1854 47.8429 22.7999 47.9919C23.0668 48.0664 23.3399 48.1346 23.613 48.1967C23.8799 48.2588 24.153 48.3208 24.4199 48.3705C25.2392 48.5505 26.0585 48.7119 26.8779 48.8484C30.0992 49.4008 33.3454 49.6802 36.6351 49.6864C37.3799 49.6864 38.1185 49.674 38.8572 49.6429C42.4944 49.5188 46.0758 49.0471 49.5889 48.2464C53.8654 47.2781 57.6703 45.8133 61.0406 43.8705C62.6854 42.9208 64.1254 41.9153 65.3668 40.8477C66.6827 39.7181 67.7627 38.5264 68.6068 37.2602C68.8923 36.8443 69.153 36.4346 69.3951 36.0188C70.5558 33.9829 71.1392 31.9222 71.1392 29.8243V29.7684C71.1206 27.2298 70.2516 24.7284 68.551 22.2519ZM65.3668 31.1898C65.1372 32.8222 64.4668 34.4298 63.3868 36.0126C63.3806 36.0188 63.3744 36.0312 63.3682 36.0374C61.9841 38.0857 59.8675 39.9291 57.0372 41.5615C54.2316 43.1815 51.0351 44.4043 47.4723 45.2174C45.6289 45.6395 43.773 45.9498 41.911 46.1484H41.8985C40.2165 46.3284 38.522 46.4153 36.8027 46.4153H36.6165C33.3827 46.4153 30.1923 46.0864 27.033 45.4657C26.9834 45.4533 26.9337 45.4408 26.8779 45.4284C26.4868 45.354 26.0896 45.2671 25.6985 45.1802C25.2703 45.0746 24.842 44.9691 24.4199 44.8574C23.5137 44.6091 22.6261 44.3422 21.7696 44.0443C21.7634 44.0443 21.7634 44.0381 21.7634 44.0381C21.4965 43.9512 21.242 43.8581 20.9813 43.7588C19.2434 43.1195 17.6048 42.3622 16.0903 41.4871C13.2723 39.8608 11.1558 37.9926 9.70337 35.9443C9.67234 35.9009 9.64751 35.8574 9.61648 35.814C8.54889 34.2064 7.89096 32.5926 7.67372 30.9602C7.61165 30.5257 7.58682 30.0912 7.58682 29.6567C7.55579 27.5215 8.22613 25.4298 9.6351 23.3753C11.0441 21.3146 13.1606 19.4712 15.9661 17.8512C18.7903 16.2188 21.993 14.996 25.531 14.1953C29.0999 13.3822 32.7434 12.9788 36.4365 12.9974C40.1296 12.9912 43.7234 13.4071 47.3048 14.2326C50.8799 15.0581 54.0889 16.2933 56.913 17.9257C59.731 19.5519 61.8723 21.4077 63.2999 23.4684C64.7275 25.5353 65.4723 27.6271 65.4599 29.756C65.4661 30.234 65.4413 30.7119 65.3668 31.1898Z" fill="#9D89F5" stroke="#050020" stroke-width="1.24138" stroke-linecap="round" stroke-linejoin="round"/>
<path d="M45.958 28.6884V38.2346C45.6724 37.9553 45.3 37.6822 44.8345 37.4153C43.8352 36.838 42.8793 36.4718 41.9049 36.3415V33.4615C41.9049 33.3808 41.8986 33.2939 41.8862 33.2132C41.7869 32.2449 41.1601 31.078 40.018 29.7063C38.7394 28.1794 37.9262 27.0622 37.678 26.3546C37.5414 26.0194 37.5353 25.7028 37.647 25.4173C37.7773 25.0884 38.0752 24.7966 38.5221 24.536C39.3973 24.027 40.378 23.8346 41.4518 23.8904C42.5815 23.9463 43.68 24.3311 44.8345 25.0015C45.6662 25.4794 46.2124 25.9697 46.4483 26.4601C46.5166 26.5904 46.56 26.7208 46.5849 26.8511C46.6593 27.4842 46.4669 28.1111 45.958 28.6884Z" fill="#9D89F5" stroke="#050020" stroke-width="1.24138" stroke-linecap="round" stroke-linejoin="round"/>
<path d="M52.0164 22.7794V35.1932L51.4019 35.547V27.6022C51.4267 27.3725 51.4267 27.1429 51.4019 26.9008C51.2716 25.8456 50.6571 24.9518 49.5522 24.2008L50.2226 23.816L52.0164 22.7794Z" fill="#9D89F5" stroke="#050020" stroke-width="1.24138" stroke-linecap="round" stroke-linejoin="round"/>
<path d="M50.3901 42.1948V29.781C50.9301 29.1665 51.2653 28.5148 51.3708 27.8134C51.3832 27.8134 51.3957 27.8135 51.4019 27.8259V39.3148C51.5074 40.3638 51.166 41.3196 50.3901 42.1948Z" fill="#9D89F5" stroke="#050020" stroke-width="1.24138" stroke-linecap="round" stroke-linejoin="round"/>
<path d="M50.3902 29.7808V42.1946L45.9585 41.1022V28.6884L50.3902 29.7808Z" fill="#9D89F5" stroke="#050020" stroke-width="1.24138" stroke-linecap="round" stroke-linejoin="round"/>
<path d="M26.8783 37.1857V45.4284C26.4873 45.3539 26.0901 45.267 25.699 45.1801C25.2708 45.0746 24.8425 44.9691 24.4204 44.8574V38.607L26.8783 37.1857Z" fill="#9D89F5" stroke="#050020" stroke-width="1.24138" stroke-linecap="round" stroke-linejoin="round"/>
<path d="M65.4605 29.7561C65.4667 30.234 65.4419 30.712 65.3674 31.1899C65.1377 32.8223 64.4674 34.4299 63.3874 36.0126C63.3626 35.9692 63.3315 35.9257 63.3005 35.8823C61.8729 33.8216 59.7316 31.9657 56.9137 30.3395C55.393 29.4582 53.7606 28.6947 52.0226 28.0554V22.7858L48.584 20.8057L46.1261 22.2271C44.1399 21.4761 42.104 21.1471 40.0992 21.2526C38.4668 21.3209 37.064 21.6126 35.8661 22.1464C35.593 22.2644 35.3261 22.3948 35.0716 22.5437C33.5571 23.4189 32.7812 24.4058 32.713 25.492V25.5416C30.2923 25.7154 27.8964 26.0692 25.5316 26.6092C21.9937 27.4099 18.7909 28.6326 15.9668 30.2651C13.1612 31.8851 11.0447 33.7285 9.63573 35.7892C9.62952 35.7954 9.62332 35.8078 9.61711 35.814C8.54952 34.2064 7.89153 32.5926 7.67429 30.9602C7.61222 30.5257 7.58746 30.0913 7.58746 29.6568C7.55642 27.5216 8.22677 25.4299 9.63573 23.3754C11.0447 21.3147 13.1612 19.4713 15.9668 17.8513C18.7909 16.2189 21.9937 14.9961 25.5316 14.1954C29.1006 13.3823 32.744 12.9789 36.4371 12.9975C40.1302 12.9913 43.724 13.4072 47.3054 14.2327C50.8806 15.0582 54.0895 16.2933 56.9137 17.9257C59.7316 19.552 61.8729 21.4078 63.3005 23.4685C64.7281 25.5354 65.4729 27.6271 65.4605 29.7561Z" fill="#9D89F5" stroke="#050020" stroke-width="1.24138" stroke-linecap="round" stroke-linejoin="round"/>
<path d="M51.4013 26.9009V27.6023C51.3951 27.6767 51.3889 27.745 51.3703 27.8133C51.2648 28.5147 50.9296 29.1664 50.3896 29.7809L45.9579 28.6885C46.4668 28.1112 46.6592 27.4843 46.5848 26.8512C46.5599 26.7209 46.5165 26.5905 46.4482 26.4602C46.2123 25.9698 45.6661 25.4795 44.8344 25.0016C43.6799 24.3312 42.5813 23.9464 41.4516 23.8905C40.3779 23.8347 39.3972 24.0271 38.522 24.5361C38.0751 24.7967 37.7772 25.0885 37.6468 25.4174C37.5351 25.7029 37.5413 26.0195 37.6779 26.3547C37.9261 27.0623 38.7392 28.1795 40.0179 29.7064C41.1599 31.0781 41.7868 32.245 41.8861 33.2133C41.8985 33.294 41.9048 33.3809 41.9048 33.4616V33.4926C41.9048 33.5609 41.9048 33.6229 41.8985 33.685C41.8985 33.7161 41.8923 33.7533 41.8861 33.7843C41.8737 33.9147 41.8427 34.045 41.8054 34.1692C41.5385 34.9823 40.9985 35.7147 40.1979 36.3602H40.1916C39.8937 36.6023 39.5648 36.8257 39.1985 37.0367C38.6958 37.3223 38.193 37.5705 37.6716 37.7692C36.2006 38.365 34.6613 38.6195 33.0723 38.5326C32.9668 38.5264 32.8675 38.5202 32.762 38.5078C31.0861 38.3898 29.4661 38.0795 27.933 37.5643C27.573 37.4526 27.2192 37.3223 26.8716 37.1795L24.4137 38.6009L21.7572 37.074L20.9751 36.6209L21.7572 36.1678L23.5385 35.1436C22.3779 34.0574 21.7572 32.9526 21.7572 31.854V31.8043C21.751 30.6747 22.2599 29.5326 23.402 28.3657L27.933 29.514C26.9834 30.5133 26.5985 31.4443 26.7972 32.3257C26.8779 32.9898 27.2751 33.5733 27.933 34.0823C28.1441 34.2561 28.3861 34.4174 28.6468 34.5726C29.7268 35.1933 30.8999 35.5905 32.1972 35.7519C32.371 35.7705 32.5385 35.7829 32.7061 35.7892C33.1468 35.8078 33.5689 35.7829 33.9785 35.7023H33.9848C34.593 35.5843 35.1703 35.3671 35.7413 35.0381C36.1572 34.7961 36.4613 34.5292 36.6599 34.2436C36.9144 33.8712 36.9827 33.4554 36.8585 33.0023C36.6289 32.2016 35.8406 30.985 34.5372 29.3588C33.302 27.8692 32.7061 26.5843 32.7061 25.5354V25.4857C32.7744 24.3995 33.5503 23.4126 35.0648 22.5374C35.3192 22.3885 35.5861 22.2581 35.8592 22.1402C37.0572 21.6064 38.4599 21.3147 40.0923 21.2464C42.0972 21.1409 44.133 21.4698 46.1192 22.2209L48.5772 20.7995L52.0158 22.7795L50.222 23.8161L49.5516 24.2009C50.6565 24.9519 51.271 25.8457 51.4013 26.9009Z" fill="#9D89F5" stroke="#050020" stroke-width="1.24138" stroke-linecap="round" stroke-linejoin="round"/>
<path d="M51.4019 27.6023V26.9009C51.4267 27.1429 51.4267 27.3726 51.4019 27.6023Z" fill="#9D89F5" stroke="#050020" stroke-width="1.24138" stroke-linecap="round" stroke-linejoin="round"/>
<path d="M24.4206 38.6071V44.8574C23.5143 44.6091 22.6268 44.3422 21.7702 44.0443C21.764 44.0443 21.764 44.0381 21.764 44.0381C21.4971 43.9512 21.2426 43.8581 20.9819 43.7588V36.6271L21.764 37.0802L24.4206 38.6071Z" fill="#9D89F5" stroke="#050020" stroke-width="1.24138" stroke-linecap="round" stroke-linejoin="round"/>
<path d="M36.6603 34.2435C36.4617 34.529 36.1576 34.7959 35.7417 35.038C35.1707 35.3669 34.5934 35.5842 33.9852 35.6959H33.979C33.5693 35.7828 33.1472 35.8076 32.7065 35.789V25.5352C32.7065 26.5842 33.3024 27.869 34.5376 29.3587C35.841 30.9849 36.6293 32.2014 36.859 33.0021C36.9831 33.4552 36.9148 33.8711 36.6603 34.2435Z" fill="#9D89F5" stroke="#050020" stroke-width="1.24138" stroke-linecap="round" stroke-linejoin="round"/>
<path d="M27.9332 29.514V34.0823C27.2753 33.5733 26.8781 32.9898 26.7974 32.3257C26.5988 31.4443 26.9836 30.5133 27.9332 29.514Z" fill="#9D89F5" stroke="#050020" stroke-width="1.24138" stroke-linecap="round" stroke-linejoin="round"/>
<path d="M23.5387 35.1437L21.7573 36.1678V31.854C21.7573 32.9526 22.378 34.0575 23.5387 35.1437Z" fill="#9D89F5" stroke="#050020" stroke-width="1.24138" stroke-linecap="round" stroke-linejoin="round"/>
<path d="M71.1401 29.8243V42.1823C71.1525 44.7271 70.3083 47.2223 68.6076 49.674C66.9628 52.1319 64.4304 54.3292 61.0414 56.2843C57.6711 58.2271 53.8663 59.6919 49.5897 60.6602C45.3628 61.6223 41.0366 62.1126 36.6359 62.1001C32.229 62.0939 27.9028 61.5912 23.6139 60.6106C19.3559 59.6112 15.5076 58.1526 12.1187 56.1975C8.73592 54.2423 6.20352 52.0202 4.478 49.5623C2.77731 47.0857 1.92696 44.5968 1.91455 42.0581V29.6443C1.92696 31.7175 2.4918 33.7595 3.63387 35.7954C3.88836 36.2485 4.16765 36.6954 4.478 37.1485C5.34076 38.3775 6.39594 39.5443 7.66834 40.6554H7.67454C8.94696 41.7602 10.4242 42.803 12.1187 43.7837C14.7939 45.3292 17.7545 46.5643 20.9821 47.4954C21.578 47.6816 22.1863 47.843 22.8008 47.9919C23.0676 48.0664 23.3408 48.1347 23.6139 48.1968C23.8808 48.2588 24.1539 48.3209 24.4208 48.3706C25.2401 48.5506 26.0594 48.7119 26.8787 48.8485C30.1001 49.4009 33.3463 49.6802 36.6359 49.6864C37.3808 49.6864 38.1194 49.674 38.858 49.643C42.4952 49.5188 46.0766 49.0471 49.5897 48.2464C53.8663 47.2781 57.6711 45.8133 61.0414 43.8706C62.6863 42.9209 64.1263 41.9154 65.3676 40.8478C66.6835 39.7181 67.7635 38.5264 68.6076 37.2602C68.8932 36.8443 69.1539 36.4347 69.3959 36.0188C70.5566 33.983 71.1401 31.9223 71.1401 29.8243Z" fill="#9D89F5" stroke="#050020" stroke-width="1.24138" stroke-linecap="round" stroke-linejoin="round"/>
<path d="M41.9115 33.4987V46.1484H41.8991C40.217 46.3284 38.5226 46.4153 36.8032 46.4153H36.617C33.3832 46.4153 30.1929 46.0863 27.0336 45.4656C26.9839 45.4532 26.9343 45.4408 26.8784 45.4284V37.1856C27.226 37.3284 27.5798 37.4587 27.9398 37.5704C29.4729 38.0856 31.0929 38.396 32.7688 38.5139C32.8743 38.5263 32.9736 38.5325 33.0791 38.5387C34.6681 38.6256 36.2074 38.3711 37.6784 37.7753C38.1998 37.5766 38.7026 37.3284 39.2053 37.0429C39.5715 36.8318 39.9005 36.6084 40.1984 36.3663H40.2046C41.0053 35.7208 41.5453 34.9884 41.8122 34.1753C41.8495 34.0511 41.8805 33.9208 41.8929 33.7904C41.8991 33.7594 41.9053 33.7222 41.9053 33.6911C41.9115 33.6291 41.9115 33.567 41.9115 33.4987Z" fill="#9D89F5" stroke="#050020" stroke-width="1.24138" stroke-linecap="round" stroke-linejoin="round"/>
</svg>
