<svg width="73" height="72" viewBox="0 0 73 72" fill="none" xmlns="http://www.w3.org/2000/svg">
<path d="M70.5998 19.333C70.5998 19.573 70.5366 19.8067 70.4166 20.0404C70.1008 20.6467 69.5071 21.1519 68.6355 21.5435L48.6902 30.512L49.2459 30.8341L59.3764 36.6825C59.989 37.0362 60.368 37.4151 60.5196 37.8256C60.5638 37.952 60.589 38.0846 60.589 38.2235C60.589 38.4888 60.5006 38.7604 60.3175 39.0446C59.749 39.9288 58.6185 40.4088 56.9259 40.4846L54.3111 40.6172L19.9027 42.3414L7.25852 42.973C6.15958 43.0235 5.15538 42.8909 4.23328 42.5688C3.31749 42.253 2.67329 41.8046 2.30697 41.2172C2.09224 40.8825 1.98486 40.5414 1.98486 40.1941C1.98486 39.9477 2.04172 39.6888 2.1554 39.4362C2.42698 38.8235 3.00169 38.3246 3.86696 37.9267L11.4964 34.6425L21.2101 30.4614L12.6649 25.5288C11.9133 25.0993 11.5217 24.613 11.4964 24.0698V23.9246C11.5027 23.7162 11.5722 23.4951 11.6922 23.2677C12.1406 22.3962 13.1449 21.8783 14.7049 21.7267L64.764 16.6172C65.8629 16.5162 66.905 16.6046 67.8903 16.8825C68.8755 17.1604 69.6271 17.6088 70.1324 18.2151C70.4419 18.5877 70.5998 18.9604 70.5998 19.333Z" fill="#FFA500" stroke="#050020" stroke-width="1.26316" stroke-linecap="round" stroke-linejoin="round"/>
<path d="M70.5996 19.3394L70.587 31.8004V32.1351C70.568 32.312 70.5112 32.4951 70.4164 32.672C70.1007 33.2783 69.507 33.7836 68.6354 34.1751L60.5194 37.8257C60.3678 37.4151 59.9889 37.0362 59.3763 36.6825L49.2457 30.8341L48.6899 30.512L68.6354 21.5436C69.507 21.152 70.1007 20.6467 70.4164 20.0404C70.5364 19.8067 70.5996 19.573 70.5996 19.3394Z" fill="#FFA500" stroke="#050020" stroke-width="1.26316" stroke-linecap="round" stroke-linejoin="round"/>
<path d="M60.5825 50.9877V50.9183V50.9877Z" fill="#FFA500"/>
<path d="M60.5825 50.9877V50.9183" stroke="#050020" stroke-width="1.26316" stroke-linecap="round" stroke-linejoin="round"/>
<path d="M60.589 38.2235V50.7856L60.5828 50.9182C60.5765 51.1582 60.488 51.4172 60.3175 51.6761C59.749 52.5604 58.6185 53.0404 56.9259 53.1161L7.25852 55.6046C6.15958 55.6551 5.15538 55.5225 4.23328 55.2004C3.31749 54.8846 2.67329 54.4361 2.30697 53.8488C2.09855 53.5204 1.99118 53.1856 1.98486 52.8446V40.194C1.98486 40.5414 2.09224 40.8825 2.30697 41.2172C2.67329 41.8046 3.31749 42.253 4.23328 42.5688C5.15538 42.8909 6.15958 43.0235 7.25852 42.973L19.9027 42.3414L54.3111 40.6172L56.9259 40.4846C58.6185 40.4088 59.749 39.9288 60.3175 39.0446C60.5006 38.7604 60.589 38.4888 60.589 38.2235Z" fill="#FFA500" stroke="#050020" stroke-width="1.26316" stroke-linecap="round" stroke-linejoin="round"/>
<path d="M60.5894 38.2235V38.1603V38.2235Z" fill="#FFA500"/>
<path d="M60.5894 38.2235V38.1603" stroke="#050020" stroke-width="1.26316" stroke-linecap="round" stroke-linejoin="round"/>
<path d="M1.98486 40.194V40.0613V40.194Z" fill="#FFA500"/>
<path d="M1.98486 40.194V40.0613" stroke="#050020" stroke-width="1.26316" stroke-linecap="round" stroke-linejoin="round"/>
<path d="M21.2103 30.4614L11.4966 34.6425V24.0698C11.5218 24.613 11.9134 25.0993 12.665 25.5288L21.2103 30.4614Z" fill="#FFA500" stroke="#050020" stroke-width="1.26316" stroke-linecap="round" stroke-linejoin="round"/>
</svg>
