<svg width="12" height="12" viewBox="0 0 12 12" fill="none" xmlns="http://www.w3.org/2000/svg">
<path d="M6.0918 5.18164V6.92438H8.56305C8.45453 7.48484 8.12889 7.9594 7.64049 8.27849L9.13075 9.41169C9.99903 8.62626 10.5 7.4726 10.5 6.10215C10.5 5.78306 10.4707 5.47621 10.4165 5.18169L6.0918 5.18164Z" fill="#4285F4"/>
<path d="M1.99255 3.9834C1.67948 4.58883 1.5 5.27203 1.5 6.0002C1.5 6.72837 1.67948 7.41157 1.99255 8.017C1.99255 8.02107 3.52041 6.85518 3.52041 6.85518C3.42857 6.58518 3.37429 6.29883 3.37429 6.00015C3.37429 5.70148 3.42857 5.41513 3.52041 5.14513L1.99255 3.9834Z" fill="#FBBC05"/>
<path d="M6.09143 3.29183C6.7677 3.29183 7.3688 3.52091 7.84886 3.96274L9.16379 2.67411C8.36647 1.94594 7.33125 1.5 6.09143 1.5C4.29645 1.5 2.74776 2.51046 1.99219 3.9832L3.52 5.14503C3.88316 4.08137 4.89755 3.29183 6.09143 3.29183Z" fill="#EA4335"/>
<path d="M3.51803 6.85645L3.18192 7.10859L1.99219 8.01676C2.74776 9.48539 4.29635 10.5 6.09134 10.5C7.33111 10.5 8.37053 10.099 9.13029 9.41178L7.64003 8.27859C7.23093 8.54859 6.70913 8.71224 6.09134 8.71224C4.89746 8.71224 3.88311 7.9227 3.5199 6.85904L3.51803 6.85645Z" fill="#34A853"/>
</svg>
