<svg width="1440" height="151" viewBox="0 0 1440 151" fill="none" xmlns="http://www.w3.org/2000/svg">
<path d="M51.8095 4.38623C51.8095 6.59537 53.6004 8.38623 55.8095 8.38623C58.0187 8.38623 59.8095 6.59537 59.8095 4.38623C59.8095 2.17709 58.0187 0.38623 55.8095 0.38623C53.6004 0.38623 51.8095 2.17709 51.8095 4.38623ZM466.846 76.1336C466.846 78.3428 468.637 80.1336 470.846 80.1336C473.055 80.1336 474.846 78.3428 474.846 76.1336C474.846 73.9245 473.055 72.1336 470.846 72.1336C468.637 72.1336 466.846 73.9245 466.846 76.1336ZM-31 92.6907C-31 94.8999 -29.2091 96.6907 -27 96.6907C-24.7909 96.6907 -23 94.8999 -23 92.6907C-23 90.4816 -24.7909 88.6907 -27 88.6907C-29.2091 88.6907 -31 90.4816 -31 92.6907ZM721 76.1336C721 78.3428 722.791 80.1336 725 80.1336C727.209 80.1336 729 78.3428 729 76.1336C729 73.9245 727.209 72.1336 725 72.1336C722.791 72.1336 721 73.9245 721 76.1336ZM676.258 75.4841L676.668 74.8559L676.258 75.4841ZM653.631 60.7278L653.221 61.356L653.631 60.7278ZM485.089 61.3072L484.548 60.7876L485.089 61.3072ZM152.456 93.7736L152.969 93.2267L152.456 93.7736ZM401.657 148.157L401.116 147.638L401.657 148.157ZM401.498 28.6667L401.074 29.2856L401.498 28.6667ZM210.576 148.303L210.063 148.85L210.576 148.303ZM79.2683 26.8562L78.7495 27.3978L79.2683 26.8562ZM55.2907 4.92785L78.7495 27.3978L79.7871 26.3146L56.3283 3.84461L55.2907 4.92785ZM82.0352 28.7175H399.238V27.2175H82.0352V28.7175ZM401.074 29.2856L470.423 76.7525L471.27 75.5147L401.921 28.0478L401.074 29.2856ZM-27 93.4407H149.719V91.9407H-27V93.4407ZM151.943 94.3206L210.063 148.85L211.089 147.756L152.969 93.2267L151.943 94.3206ZM213.313 150.136H398.772V148.636H213.313V150.136ZM402.198 148.677L485.63 61.8267L484.548 60.7876L401.116 147.638L402.198 148.677ZM487.974 60.8283H651.446V59.3283H487.974V60.8283ZM653.221 61.356L675.848 76.1123L676.668 74.8559L654.041 60.0996L653.221 61.356ZM678.443 76.8836H725V75.3836H678.443V76.8836ZM675.848 76.1123C676.62 76.6156 677.522 76.8836 678.443 76.8836V75.3836C677.813 75.3836 677.196 75.2003 676.668 74.8559L675.848 76.1123ZM651.446 60.8283C652.076 60.8283 652.693 61.0116 653.221 61.356L654.041 60.0996C653.269 59.5963 652.367 59.3283 651.446 59.3283V60.8283ZM485.63 61.8267C486.243 61.1888 487.089 60.8283 487.974 60.8283V59.3283C486.681 59.3283 485.444 59.8552 484.548 60.7876L485.63 61.8267ZM149.719 93.4407C150.545 93.4407 151.34 93.7553 151.943 94.3206L152.969 93.2267C152.088 92.4005 150.926 91.9407 149.719 91.9407V93.4407ZM398.772 150.136C400.065 150.136 401.302 149.609 402.198 148.677L401.116 147.638C400.503 148.276 399.657 148.636 398.772 148.636V150.136ZM399.238 28.7175C399.894 28.7175 400.533 28.9156 401.074 29.2856L401.921 28.0478C401.131 27.5069 400.196 27.2175 399.238 27.2175V28.7175ZM210.063 148.85C210.943 149.676 212.105 150.136 213.313 150.136V148.636C212.487 148.636 211.692 148.322 211.089 147.756L210.063 148.85ZM78.7495 27.3978C79.6337 28.2448 80.8108 28.7175 82.0352 28.7175V27.2175C81.1975 27.2175 80.3921 26.8941 79.7871 26.3146L78.7495 27.3978Z" fill="#11006B"/>
<path d="M282.02 27.9683L399.08 27.8871C399.886 27.8865 400.673 28.1295 401.339 28.5843L427.397 46.3862" stroke="url(#paint0_linear_1273_25540)" stroke-width="1.5" stroke-linecap="round" stroke-linejoin="round"/>
<path d="M214.02 149.468L332.317 149.386L360.5 149.386" stroke="url(#paint1_linear_1273_25540)" stroke-width="1.5" stroke-linecap="round" stroke-linejoin="round"/>
<path d="M571 60.0864H613.803H624" stroke="url(#paint2_linear_1273_25540)" stroke-width="1.5" stroke-linecap="round" stroke-linejoin="round"/>
<path d="M1398.19 4.42285C1398.19 6.63199 1396.4 8.42285 1394.19 8.42285C1391.98 8.42285 1390.19 6.63199 1390.19 4.42285C1390.19 2.21371 1391.98 0.422852 1394.19 0.422852C1396.4 0.422852 1398.19 2.21371 1398.19 4.42285ZM983.154 76.1702C983.154 78.3794 981.363 80.1702 979.154 80.1702C976.945 80.1702 975.154 78.3794 975.154 76.1702C975.154 73.9611 976.945 72.1702 979.154 72.1702C981.363 72.1702 983.154 73.9611 983.154 76.1702ZM1481 92.7273C1481 94.9365 1479.21 96.7273 1477 96.7273C1474.79 96.7273 1473 94.9365 1473 92.7273C1473 90.5182 1474.79 88.7273 1477 88.7273C1479.21 88.7273 1481 90.5182 1481 92.7273ZM729 76.1702C729 78.3794 727.209 80.1702 725 80.1702C722.791 80.1702 721 78.3794 721 76.1702C721 73.9611 722.791 72.1702 725 72.1702C727.209 72.1702 729 73.9611 729 76.1702ZM773.742 75.5207L773.332 74.8925L773.742 75.5207ZM796.369 60.7644L796.779 61.3926L796.369 60.7644ZM964.911 61.3438L965.452 60.8242L964.911 61.3438ZM1297.54 93.8102L1297.03 93.2633L1297.54 93.8102ZM1048.34 148.194L1048.88 147.674L1048.34 148.194ZM1048.5 28.7033L1048.93 29.3222L1048.5 28.7033ZM1239.42 148.34L1239.94 148.887L1239.42 148.34ZM1370.73 26.8928L1371.25 27.4344L1370.73 26.8928ZM1394.71 4.96447L1371.25 27.4344L1370.21 26.3512L1393.67 3.88123L1394.71 4.96447ZM1367.96 28.7542H1050.76V27.2542H1367.96V28.7542ZM1048.93 29.3222L979.577 76.7892L978.73 75.5513L1048.08 28.0844L1048.93 29.3222ZM1477 93.4773H1300.28V91.9773H1477V93.4773ZM1298.06 94.3572L1239.94 148.887L1238.91 147.793L1297.03 93.2633L1298.06 94.3572ZM1236.69 150.173H1051.23V148.673H1236.69V150.173ZM1047.8 148.714L964.37 61.8634L965.452 60.8242L1048.88 147.674L1047.8 148.714ZM962.026 60.8649H798.554V59.3649H962.026V60.8649ZM796.779 61.3926L774.152 76.1489L773.332 74.8925L795.959 60.1362L796.779 61.3926ZM771.557 76.9202H725V75.4202H771.557V76.9202ZM774.152 76.1489C773.38 76.6523 772.478 76.9202 771.557 76.9202V75.4202C772.187 75.4202 772.804 75.2369 773.332 74.8925L774.152 76.1489ZM798.554 60.8649C797.924 60.8649 797.307 61.0483 796.779 61.3926L795.959 60.1362C796.731 59.6329 797.633 59.3649 798.554 59.3649V60.8649ZM964.37 61.8634C963.757 61.2255 962.911 60.8649 962.026 60.8649V59.3649C963.319 59.3649 964.556 59.8919 965.452 60.8242L964.37 61.8634ZM1300.28 93.4773C1299.45 93.4773 1298.66 93.792 1298.06 94.3572L1297.03 93.2633C1297.91 92.4372 1299.07 91.9773 1300.28 91.9773V93.4773ZM1051.23 150.173C1049.94 150.173 1048.7 149.646 1047.8 148.714L1048.88 147.674C1049.5 148.312 1050.34 148.673 1051.23 148.673V150.173ZM1050.76 28.7542C1050.11 28.7542 1049.47 28.9522 1048.93 29.3222L1048.08 28.0844C1048.87 27.5436 1049.8 27.2542 1050.76 27.2542V28.7542ZM1239.94 148.887C1239.06 149.713 1237.89 150.173 1236.69 150.173V148.673C1237.51 148.673 1238.31 148.358 1238.91 147.793L1239.94 148.887ZM1371.25 27.4344C1370.37 28.2814 1369.19 28.7542 1367.96 28.7542V27.2542C1368.8 27.2542 1369.61 26.9307 1370.21 26.3512L1371.25 27.4344Z" fill="#11006B"/>
<path d="M1167.98 28.0049L1050.92 27.9237C1050.11 27.9232 1049.33 28.1662 1048.66 28.6209L1022.6 46.4229" stroke="url(#paint3_linear_1273_25540)" stroke-width="1.5" stroke-linecap="round" stroke-linejoin="round"/>
<path d="M1283.5 106.886L1239.52 148.324C1238.78 149.022 1237.8 149.412 1236.78 149.412L1208.5 149.432" stroke="url(#paint4_linear_1273_25540)" stroke-width="1.5" stroke-linecap="round" stroke-linejoin="round"/>
<path d="M881 60.1318H838.197H828" stroke="url(#paint5_linear_1273_25540)" stroke-width="1.5" stroke-linecap="round" stroke-linejoin="round"/>
<defs>
<linearGradient id="paint0_linear_1273_25540" x1="282.02" y1="37.1362" x2="427.397" y2="37.1362" gradientUnits="userSpaceOnUse">
<stop stop-color="#0D0052"/>
<stop offset="0.46" stop-color="#1D09BC"/>
<stop offset="1" stop-color="#02C76A"/>
</linearGradient>
<linearGradient id="paint1_linear_1273_25540" x1="214.02" y1="149.427" x2="360.5" y2="149.427" gradientUnits="userSpaceOnUse">
<stop stop-color="#0D0052"/>
<stop offset="0.46" stop-color="#1D09BC"/>
<stop offset="1" stop-color="#02C76A"/>
</linearGradient>
<linearGradient id="paint2_linear_1273_25540" x1="571" y1="60.5864" x2="624" y2="60.5864" gradientUnits="userSpaceOnUse">
<stop stop-color="#0D0052"/>
<stop offset="0.46" stop-color="#1D09BC"/>
<stop offset="1" stop-color="#02C76A"/>
</linearGradient>
<linearGradient id="paint3_linear_1273_25540" x1="1167.98" y1="37.1729" x2="1022.6" y2="37.1729" gradientUnits="userSpaceOnUse">
<stop stop-color="#0D0052"/>
<stop offset="0.46" stop-color="#1D09BC"/>
<stop offset="1" stop-color="#02C76A"/>
</linearGradient>
<linearGradient id="paint4_linear_1273_25540" x1="1355.98" y1="158.723" x2="1210.6" y2="158.723" gradientUnits="userSpaceOnUse">
<stop stop-color="#0D0052"/>
<stop offset="0.46" stop-color="#1D09BC"/>
<stop offset="1" stop-color="#02C76A"/>
</linearGradient>
<linearGradient id="paint5_linear_1273_25540" x1="881" y1="59.6318" x2="828" y2="59.6318" gradientUnits="userSpaceOnUse">
<stop stop-color="#0D0052"/>
<stop offset="0.46" stop-color="#1D09BC"/>
<stop offset="1" stop-color="#02C76A"/>
</linearGradient>
</defs>
</svg>
